# xmcd
#
# Track frame offsets:
#	150
#	28335
#	53601
#	71223
#	113181
#	127689
#	149493
#	169632
#	186564
#	203549
#	226345
#	245957
#	266696
#	285040
#	310526
#
# Disc length: 4470 seconds
#
# Revision: 0
# Processed by: cddbd v1.5.2PL0 Copyright (c) Steve Scherf et al.
# Submitted via: EasyCDDAExtractor 16.0.1.1
#
DISCID=d711740f
DTITLE=Various Artist - 2012 Steppin' Music Vol. 11
DYEAR=2012
DGENRE=R&B
TTITLE0=The Temptations - My love is True (Truly For You)
TTITLE1=Smokey Robinson - Love Bath
TTITLE2=Rick Ross ft. Ne-Yo - Super High
TTITLE3=Merge Of Equals - Montigolfer
TTITLE4=Mary J Blige ft. P. Diddy - Someone To Love me
TTITLE5=Carl Thomas - I Wish I'd Never Met Her
TTITLE6=Trina Brussard - Dreamin' Of One
TTITLE7=Teddy Austin - How Did We Get Here
TTITLE8=RES - For Who You Are
TTITLE9=Jimmy Abner - Nothing Feels Better Than You
TTITLE10=Eric Roberson - Further
TTITLE11=Marsha Ambrosius - Far Away
TTITLE12=Grammatica - Chilaxin By The Sea 
TTITLE13=Rashaan Patterson - It's Alright Now
TTITLE14=Lisa Shaw - Should Have Known
EXTD=
EXTT0=
EXTT1=
EXTT2=
EXTT3=
EXTT4=
EXTT5=
EXTT6=
EXTT7=
EXTT8=
EXTT9=
EXTT10=
EXTT11=
EXTT12=
EXTT13=
EXTT14=
PLAYORDER=
